<svg xmlns="http://www.w3.org/2000/svg" version="1.1" xmlns:xlink="http://www.w3.org/1999/xlink" xmlns:svgjs="http://svgjs.dev/svgjs" width="1440" height="560" preserveAspectRatio="none" viewBox="0 0 1440 560"><g mask="url(&quot;#SvgjsMask1000&quot;)" fill="none"><rect width="1440" height="560" x="0" y="0" fill="#0e2a47"></rect><path d="M 0,195 C 57.6,162.8 172.8,36.2 288,34 C 403.2,31.8 460.8,179.6 576,184 C 691.2,188.4 748.8,38.8 864,56 C 979.2,73.2 1036.8,260.4 1152,270 C 1267.2,279.6 1382.4,137.2 1440,104L1440 560L0 560z" fill="#184a7e"></path><path d="M 0,440 C 96,410.8 288,281.4 480,294 C 672,306.6 768,485.2 960,503 C 1152,520.8 1344,407 1440,383L1440 560L0 560z" fill="#2264ab"></path></g><defs><mask id="SvgjsMask1000"><rect width="1440" height="560" fill="#ffffff"></rect></mask></defs></svg>