<svg xmlns="http://www.w3.org/2000/svg" version="1.1" xmlns:xlink="http://www.w3.org/1999/xlink" xmlns:svgjs="http://svgjs.dev/svgjs" width="1440" height="560" preserveAspectRatio="none" viewBox="0 0 1440 560"><g mask="url(&quot;#SvgjsMask1062&quot;)" fill="none"><rect width="1440" height="560" x="0" y="0" fill="rgba(59, 116, 175, 1)"></rect><path d="M 0,139 C 57.6,153.8 172.8,237.6 288,213 C 403.2,188.4 460.8,27 576,16 C 691.2,5 748.8,152 864,158 C 979.2,164 1036.8,36.6 1152,46 C 1267.2,55.4 1382.4,173.2 1440,205L1440 560L0 560z" fill="rgba(67, 141, 220, 1)"></path><path d="M 0,338 C 96,381 288,553.4 480,553 C 672,552.6 768,337 960,336 C 1152,335 1344,505.6 1440,548L1440 560L0 560z" fill="rgba(105, 170, 239, 1)"></path></g><defs><mask id="SvgjsMask1062"><rect width="1440" height="560" fill="#ffffff"></rect></mask></defs></svg>